<svg width="30" height="30" viewBox="0 0 30 30" fill="none" xmlns="http://www.w3.org/2000/svg">
<path d="M11.25 15.5H11.75V15V1.875C11.75 1.11989 12.3699 0.5 13.125 0.5H16.875C17.6301 0.5 18.25 1.11989 18.25 1.875V15V15.5H18.75H24.375C25.0534 15.5 25.75 16.0241 25.75 16.875C25.75 17.3946 25.515 17.6645 25.1299 18.1067C25.0446 18.2047 24.9519 18.3112 24.8527 18.4307C24.8527 18.4307 24.8527 18.4308 24.8527 18.4308L16.4902 28.5088L16.4902 28.5088L16.4873 28.5123C15.9071 29.2246 15.5837 29.5 15 29.5C14.4165 29.5 14.0951 29.2251 13.5122 28.5117L13.5122 28.5117L13.5098 28.5088L5.14733 18.4308C5.14732 18.4308 5.1473 18.4307 5.14728 18.4307C5.04813 18.3112 4.95543 18.2047 4.87009 18.1067C4.48504 17.6645 4.25 17.3946 4.25 16.875C4.25 16.0241 4.94659 15.5 5.625 15.5H11.25Z" stroke="black"/>
</svg>
