<svg width="25" height="25" viewBox="0 0 25 25" fill="none" xmlns="http://www.w3.org/2000/svg">
<path d="M18.9781 0.228057C19.0506 0.155302 19.1369 0.0975784 19.2318 0.0581934C19.3267 0.0188083 19.4284 -0.00146484 19.5312 -0.00146484C19.634 -0.00146484 19.7357 0.0188083 19.8306 0.0581934C19.9255 0.0975784 20.0117 0.155302 20.0843 0.228057L24.7718 4.91556C24.8446 4.98813 24.9023 5.07434 24.9417 5.16925C24.9811 5.26417 25.0013 5.36592 25.0013 5.46868C25.0013 5.57144 24.9811 5.6732 24.9417 5.76811C24.9023 5.86302 24.8446 5.94924 24.7718 6.02181L9.14682 21.6468C9.07184 21.7213 8.98254 21.7797 8.88432 21.8187L1.07182 24.9437C0.929841 25.0005 0.77431 25.0144 0.624503 24.9837C0.474696 24.953 0.337202 24.8789 0.229067 24.7708C0.120932 24.6627 0.046911 24.5252 0.0161806 24.3754C-0.0145498 24.2256 -0.000638037 24.07 0.0561911 23.9281L3.18119 16.1156C3.22014 16.0173 3.27861 15.928 3.35307 15.8531L18.9781 0.228057ZM17.5109 3.90618L21.0937 7.48899L23.114 5.46868L19.5312 1.88587L17.5109 3.90618ZM19.989 8.59368L16.4062 5.01087L6.24994 15.1671V15.6249H7.03119C7.23839 15.6249 7.43711 15.7072 7.58362 15.8538C7.73013 16.0003 7.81244 16.199 7.81244 16.4062V17.1874H8.59369C8.80089 17.1874 8.99961 17.2697 9.14612 17.4163C9.29263 17.5628 9.37494 17.7615 9.37494 17.9687V18.7499H9.83275L19.989 8.59368ZM4.73744 16.6796L4.57182 16.8452L2.18432 22.8156L8.15463 20.4281L8.32025 20.2624C8.17122 20.2067 8.04274 20.1069 7.952 19.9762C7.86125 19.8455 7.81256 19.6903 7.81244 19.5312V18.7499H7.03119C6.82399 18.7499 6.62528 18.6676 6.47876 18.5211C6.33225 18.3746 6.24994 18.1759 6.24994 17.9687V17.1874H5.46869C5.3096 17.1873 5.15433 17.1386 5.02366 17.0479C4.89298 16.9571 4.79312 16.8287 4.73744 16.6796Z" fill="black"/>
</svg>
