<svg width="30" height="29" viewBox="0 0 30 29" fill="none" xmlns="http://www.w3.org/2000/svg">
<path d="M26.25 1.875C26.7473 1.875 27.2242 2.07254 27.5758 2.42417C27.9275 2.77581 28.125 3.25272 28.125 3.75V18.75C28.125 19.2473 27.9275 19.7242 27.5758 20.0758C27.2242 20.4275 26.7473 20.625 26.25 20.625H21.5625C20.9803 20.625 20.4062 20.7605 19.8854 21.0209C19.3647 21.2813 18.9118 21.6593 18.5625 22.125L15 26.8744L11.4375 22.125C11.0882 21.6593 10.6353 21.2813 10.1146 21.0209C9.59384 20.7605 9.01967 20.625 8.4375 20.625H3.75C3.25272 20.625 2.77581 20.4275 2.42417 20.0758C2.07254 19.7242 1.875 19.2473 1.875 18.75V3.75C1.875 3.25272 2.07254 2.77581 2.42417 2.42417C2.77581 2.07254 3.25272 1.875 3.75 1.875H26.25ZM3.75 0C2.75544 0 1.80161 0.395088 1.09835 1.09835C0.395088 1.80161 0 2.75544 0 3.75L0 18.75C0 19.7446 0.395088 20.6984 1.09835 21.4016C1.80161 22.1049 2.75544 22.5 3.75 22.5H8.4375C8.72858 22.5 9.01567 22.5678 9.27603 22.6979C9.53638 22.8281 9.76285 23.0171 9.9375 23.25L13.5 27.9994C13.6747 28.2322 13.9011 28.4212 14.1615 28.5514C14.4218 28.6816 14.7089 28.7494 15 28.7494C15.2911 28.7494 15.5782 28.6816 15.8385 28.5514C16.0989 28.4212 16.3253 28.2322 16.5 27.9994L20.0625 23.25C20.2372 23.0171 20.4636 22.8281 20.724 22.6979C20.9843 22.5678 21.2714 22.5 21.5625 22.5H26.25C27.2446 22.5 28.1984 22.1049 28.9016 21.4016C29.6049 20.6984 30 19.7446 30 18.75V3.75C30 2.75544 29.6049 1.80161 28.9016 1.09835C28.1984 0.395088 27.2446 0 26.25 0L3.75 0Z" fill="black"/>
</svg>
