<svg width="24" height="30" viewBox="0 0 24 30" fill="none" xmlns="http://www.w3.org/2000/svg">
<path d="M8.25 15.5H8.75V15V1.875C8.75 1.11989 9.36989 0.5 10.125 0.5H13.875C14.6301 0.5 15.25 1.11989 15.25 1.875V15V15.5H15.75H21.375C22.0534 15.5 22.75 16.0241 22.75 16.875C22.75 17.3946 22.515 17.6645 22.1299 18.1067C22.0446 18.2047 21.9519 18.3112 21.8527 18.4307C21.8527 18.4307 21.8527 18.4308 21.8527 18.4308L13.4902 28.5088L13.4902 28.5088L13.4873 28.5123C12.9071 29.2246 12.5837 29.5 12 29.5C11.4165 29.5 11.0951 29.2251 10.5122 28.5117L10.5122 28.5117L10.5098 28.5088L2.14733 18.4308C2.14732 18.4308 2.1473 18.4307 2.14728 18.4307C2.04813 18.3112 1.95543 18.2047 1.87009 18.1067C1.48504 17.6645 1.25 17.3946 1.25 16.875C1.25 16.0241 1.94659 15.5 2.625 15.5H8.25Z" fill="#FF0000" stroke="black"/>
</svg>
