<svg width="24" height="30" viewBox="0 0 24 30" fill="none" xmlns="http://www.w3.org/2000/svg">
<path d="M15.75 14.5H15.25V15L15.25 28.125C15.25 28.8801 14.6301 29.5 13.875 29.5H10.125C9.36989 29.5 8.75 28.8801 8.75 28.125V15V14.5H8.25H2.625C1.94659 14.5 1.25 13.9759 1.25 13.125C1.25 12.6054 1.48503 12.3355 1.87009 11.8933C1.95544 11.7953 2.04817 11.6888 2.14734 11.5692L10.5098 1.49116L10.5098 1.49117L10.5127 1.48767C11.0929 0.775409 11.4163 0.5 12 0.5C12.5835 0.5 12.9049 0.774918 13.4878 1.48827L13.4878 1.48828L13.4902 1.49116L21.8527 11.5692C21.8527 11.5692 21.8527 11.5693 21.8527 11.5693C21.9519 11.6888 22.0446 11.7953 22.1299 11.8933C22.515 12.3355 22.75 12.6054 22.75 13.125C22.75 13.9759 22.0534 14.5 21.375 14.5H15.75Z" fill="white" stroke="black"/>
</svg>
