<svg width="21" height="24" viewBox="0 0 21 24" fill="none" xmlns="http://www.w3.org/2000/svg">
<path d="M6.59375 8.59375C6.80095 8.59375 6.99966 8.67606 7.14618 8.82257C7.29269 8.96909 7.375 9.1678 7.375 9.375V18.75C7.375 18.9572 7.29269 19.1559 7.14618 19.3024C6.99966 19.4489 6.80095 19.5312 6.59375 19.5312C6.38655 19.5312 6.18784 19.4489 6.04132 19.3024C5.89481 19.1559 5.8125 18.9572 5.8125 18.75V9.375C5.8125 9.1678 5.89481 8.96909 6.04132 8.82257C6.18784 8.67606 6.38655 8.59375 6.59375 8.59375ZM10.5 8.59375C10.7072 8.59375 10.9059 8.67606 11.0524 8.82257C11.1989 8.96909 11.2812 9.1678 11.2812 9.375V18.75C11.2812 18.9572 11.1989 19.1559 11.0524 19.3024C10.9059 19.4489 10.7072 19.5312 10.5 19.5312C10.2928 19.5312 10.0941 19.4489 9.94757 19.3024C9.80106 19.1559 9.71875 18.9572 9.71875 18.75V9.375C9.71875 9.1678 9.80106 8.96909 9.94757 8.82257C10.0941 8.67606 10.2928 8.59375 10.5 8.59375ZM15.1875 9.375C15.1875 9.1678 15.1052 8.96909 14.9587 8.82257C14.8122 8.67606 14.6135 8.59375 14.4062 8.59375C14.199 8.59375 14.0003 8.67606 13.8538 8.82257C13.7073 8.96909 13.625 9.1678 13.625 9.375V18.75C13.625 18.9572 13.7073 19.1559 13.8538 19.3024C14.0003 19.4489 14.199 19.5312 14.4062 19.5312C14.6135 19.5312 14.8122 19.4489 14.9587 19.3024C15.1052 19.1559 15.1875 18.9572 15.1875 18.75V9.375Z" fill="#FF0000"/>
<path fill-rule="evenodd" clip-rule="evenodd" d="M20.6562 4.6875C20.6562 5.1019 20.4916 5.49933 20.1986 5.79235C19.9056 6.08538 19.5082 6.25 19.0938 6.25H18.3125V20.3125C18.3125 21.1413 17.9833 21.9362 17.3972 22.5222C16.8112 23.1083 16.0163 23.4375 15.1875 23.4375H5.8125C4.9837 23.4375 4.18884 23.1083 3.60279 22.5222C3.01674 21.9362 2.6875 21.1413 2.6875 20.3125V6.25H1.90625C1.49185 6.25 1.09442 6.08538 0.801396 5.79235C0.50837 5.49933 0.34375 5.1019 0.34375 4.6875V3.125C0.34375 2.7106 0.50837 2.31317 0.801396 2.02015C1.09442 1.72712 1.49185 1.5625 1.90625 1.5625H7.375C7.375 1.1481 7.53962 0.750671 7.83265 0.457646C8.12567 0.16462 8.5231 0 8.9375 0L12.0625 0C12.4769 0 12.8743 0.16462 13.1674 0.457646C13.4604 0.750671 13.625 1.1481 13.625 1.5625H19.0938C19.5082 1.5625 19.9056 1.72712 20.1986 2.02015C20.4916 2.31317 20.6562 2.7106 20.6562 3.125V4.6875ZM4.43438 6.25L4.25 6.34219V20.3125C4.25 20.7269 4.41462 21.1243 4.70765 21.4174C5.00067 21.7104 5.3981 21.875 5.8125 21.875H15.1875C15.6019 21.875 15.9993 21.7104 16.2924 21.4174C16.5854 21.1243 16.75 20.7269 16.75 20.3125V6.34219L16.5656 6.25H4.43438ZM1.90625 4.6875V3.125H19.0938V4.6875H1.90625Z" fill="#FF0000"/>
</svg>
